<svg id="Layer_1" data-name="Layer 1" xmlns="http://www.w3.org/2000/svg" viewBox="0 0 900.12 173.01"><defs><style>.cls-1{fill:#fff;}</style></defs><path class="cls-1" d="M295.69,427.85A47.78,47.78,0,0,1,312.52,441a60.76,60.76,0,0,1,10.64,19.87,79.53,79.53,0,0,1,3.74,24.78,82.72,82.72,0,0,1-3.63,24.9,57.83,57.83,0,0,1-10.63,20,49.29,49.29,0,0,1-16.84,13.09,49.85,49.85,0,0,1-21.74,4.68q-22.68,0-34.37-14.73H235v11.69H209.3v-170h26.42v62.66h4.67q11-14.73,33.67-14.73A50.29,50.29,0,0,1,295.69,427.85Zm-3.63,86.86q8.42-11.1,8.42-29.11,0-17.76-8.42-28.87T268,445.62A31.19,31.19,0,0,0,249.86,451a30.16,30.16,0,0,0-11.34,15A56.93,56.93,0,0,0,235,485.6a57.55,57.55,0,0,0,3.5,19.87,30.23,30.23,0,0,0,11.34,15A31.26,31.26,0,0,0,268,525.81Q283.64,525.81,292.06,514.71Z" transform="translate(-209.3 -375.25)"/><path class="cls-1" d="M430.47,533.76h-4.68A35.83,35.83,0,0,1,411.3,544.4a53,53,0,0,1-20.81,3.86,47.7,47.7,0,0,1-21.86-4.8,39.18,39.18,0,0,1-15.31-13.67,36.55,36.55,0,0,1-5.85-20.58,37.87,37.87,0,0,1,5.73-20.57,39.06,39.06,0,0,1,16-14.26q10.27-5.14,25.48-5.14h35.07v-3.51q0-10.05-6.31-15.9T404.75,444q-11,0-17.06,4.09a14.56,14.56,0,0,0-6.78,11.1H354.72a33.25,33.25,0,0,1,14.38-26.3q13.44-9.7,34.72-9.7,23.85,0,37.64,10.87t13.79,32.15v79H430.47Zm-17.18-10.4A31.42,31.42,0,0,0,425,513.31a26,26,0,0,0,4.79-15.55v-8.89H399.38q-12.17,0-18.71,5t-6.54,14.15q0,8.88,6.43,13.79t17.65,4.91A33.74,33.74,0,0,0,413.29,523.36Z" transform="translate(-209.3 -375.25)"/><path class="cls-1" d="M557.19,426.22v22.44H525.86v58.68q0,7.26,4.21,11.11t13.56,3.86h13.56v22.91h-14.5q-24.54,0-33.9-8.42t-9.35-25.48V448.66H477.7V426.22h21.74v-34.6h26.42v34.6Z" transform="translate(-209.3 -375.25)"/><path class="cls-1" d="M662.63,533.76H658a35.83,35.83,0,0,1-14.49,10.64,53,53,0,0,1-20.81,3.86,47.7,47.7,0,0,1-21.86-4.8,39.18,39.18,0,0,1-15.31-13.67,36.55,36.55,0,0,1-5.85-20.58,37.87,37.87,0,0,1,5.73-20.57,39.06,39.06,0,0,1,16-14.26q10.27-5.14,25.48-5.14h35.07v-3.51q0-10.05-6.31-15.9T636.91,444q-11,0-17.07,4.09a14.61,14.61,0,0,0-6.78,11.1H586.88a33.25,33.25,0,0,1,14.38-26.3q13.44-9.7,34.72-9.7,23.85,0,37.64,10.87t13.79,32.15v79H662.63Zm-17.18-10.4a31.32,31.32,0,0,0,11.68-10.05,25.93,25.93,0,0,0,4.8-15.55v-8.89h-30.4q-12.15,0-18.7,5t-6.55,14.15q0,8.88,6.43,13.79t17.66,4.91A33.74,33.74,0,0,0,645.45,523.36Z" transform="translate(-209.3 -375.25)"/><path class="cls-1" d="M789.35,426.22v22.44H758v58.68q0,7.26,4.21,11.11t13.56,3.86h13.56v22.91h-14.5q-24.54,0-33.9-8.42t-9.35-25.48V448.66H709.86V426.22H731.6v-34.6H758v34.6Z" transform="translate(-209.3 -375.25)"/><path class="cls-1" d="M926.59,487.94H838.68q.47,18.24,9,28.05t24.43,9.82q10.29,0,16.84-4a20.93,20.93,0,0,0,9.11-11.22H925A44.26,44.26,0,0,1,907.77,538q-13.68,10.29-35.89,10.29a63.76,63.76,0,0,1-24.78-4.68,51.67,51.67,0,0,1-18.82-13.09,58.14,58.14,0,0,1-11.69-20.11,76.54,76.54,0,0,1-4.1-25.48,74.55,74.55,0,0,1,4.1-25.25A56.12,56.12,0,0,1,828.28,440a50,50,0,0,1,18.58-12.51,68.08,68.08,0,0,1,43.6-1.4,47.72,47.72,0,0,1,17.66,9.82,53.28,53.28,0,0,1,13.09,17.77q5.14,10.88,5.38,25.36Zm-72.36-39.75a26.07,26.07,0,0,0-10.06,9.59,41.39,41.39,0,0,0-4.32,10.52h59.62a28,28,0,0,0-5.38-13.44,23.38,23.38,0,0,0-10.87-8.3,35.91,35.91,0,0,0-12.28-2.34Q861.13,444.22,854.23,448.19Z" transform="translate(-209.3 -375.25)"/><path class="cls-1" d="M1014.49,473.21a70.94,70.94,0,0,1,19.88,6.31A30.06,30.06,0,0,1,1047.69,492a37.44,37.44,0,0,1,4.44,18.35,31.88,31.88,0,0,1-3.38,14.15,37.71,37.71,0,0,1-9.82,12.27,46.46,46.46,0,0,1-16.25,8.42,73.25,73.25,0,0,1-21.75,3,81.86,81.86,0,0,1-22.44-2.81,51.23,51.23,0,0,1-16.6-7.83,36.45,36.45,0,0,1-10.64-12.27,43.74,43.74,0,0,1-4.79-16.14h26.42a19.17,19.17,0,0,0,3.74,8.3q3,4.1,9.35,6.43a41.57,41.57,0,0,0,14.5,2.34q11.22,0,17.18-3.39t7-7a21.47,21.47,0,0,0,1.06-5q0-6.54-4.68-9.94t-15.43-5.49l-22.68-4.21q-31.8-7-31.79-31.79,0-11.46,6.19-19.64a38.06,38.06,0,0,1,16.83-12.39q10.65-4.22,25.6-4.21a75.82,75.82,0,0,1,21.16,3.15,39.89,39.89,0,0,1,18.59,11.58,35.25,35.25,0,0,1,9.12,20.1h-26.42a11.4,11.4,0,0,0-5-7.95,23.65,23.65,0,0,0-9.47-4,51.86,51.86,0,0,0-9.11-.94A36.44,36.44,0,0,0,987,446.91q-5.25,1.75-7.36,4.67a9.71,9.71,0,0,0,.93,13.1q3,3.15,14,5Z" transform="translate(-209.3 -375.25)"/><path class="cls-1" d="M1078.79,545.22V513.89h30.63v31.33Z" transform="translate(-209.3 -375.25)"/></svg>