<svg id="Layer_1" data-name="Layer 1" xmlns="http://www.w3.org/2000/svg" viewBox="0 0 1134 256.25"><path d="M296.64,506.44l-2.83,4.63-5.65,3.85H284.3l-1.79-2.06-2.57,1.8q-1.29,1.67-4.11,4.88A87.15,87.15,0,0,0,264.78,527a15.94,15.94,0,0,1-10.27,1.8,29.54,29.54,0,0,0-3.86-1.8q-8.73-2.31-18.88-5.64-2.45-1.29-7.45-3.6-4.87-1.54-9.76-3a27.72,27.72,0,0,1-9-4.75l-6.42-.77-2.83-2.06h-2.06v-.77l-9.37-5.13q-2.82,1-7.76,6.16T169,513.89l-2,4.36a50.73,50.73,0,0,1-9.75,6.68l-5.13.51-4.62-2.31c-4.11.34-7.19.52-9.24.52a31.14,31.14,0,0,1-5.13-.58c-2.14-.39-3.63-.62-4.49-.71H115.48a9.14,9.14,0,0,1-2.82-1l-1.79-2.83,1.79-11.3q3.09-5.77,13.87-10.14,9.63-4,17.33-4-2.31,0,12.07,2.06l1.8-1.8a22.47,22.47,0,0,1,2.82-7.45l5.65-4a29,29,0,0,1,5.9-8.47,24.37,24.37,0,0,0,2.06-8.47,62.6,62.6,0,0,1,.51-8.22q1.29-4.75,3.6-14.12.76-.51,3.85-6.68v-.77a13.06,13.06,0,0,0,3.72-6.8q.51-3.21.9-6.42c.68-1.8,1.63-4.54,2.82-8.22a148.09,148.09,0,0,1,3-19,66.84,66.84,0,0,0,3.85-12.07l3.08-3.33,4.37-11.94,1.79-1.8,1.8-9.25c1.62-.77,3.94-3,6.93-6.67s5.39-5.82,7.19-6.42a26.12,26.12,0,0,0-9.24-1l-1-1q-11,.9-14.89-.77l-2.06-2.06-4.75,2.06H186q-9.12-5.4-15.41-5.4-1.16,0-10.14.77c-6,.52-9,.77-9.11.77q-7.06,9.12-8.48,14.9v4.87l1.8.78,1,2.05,2.82.77,8.48-.77,2.82-2.05,1.8-4.63,3.59-3.85,3.85-1.8h5.65l3.6,1.8,1,3.85-1.79,3.85-3.85,3.6q-6.17,2.7-8.48,2.05-5.91,4.11-15.15,4.11a37.28,37.28,0,0,1-13-2.31L136,360l-3.59-3.6q-2.07-9-1.8-12.32,5.78-6.42,16.82-12.84c1.36-.17,4.15-.72,8.34-1.67a42.51,42.51,0,0,1,8.09-1.15,46,46,0,0,1,4.88.38,43.8,43.8,0,0,0,4.88.39c.25,0,1.56-.17,3.91-.52a41.37,41.37,0,0,1,5.59-.51,20.54,20.54,0,0,1,3.21.39,21.26,21.26,0,0,0,3.2.38q.39,0,5.78-.77a36.32,36.32,0,0,0,9.25,2.83l1,2.82a16.52,16.52,0,0,0,7.45,1l8.47,3.59h5.65l1.8,1q5.52-.39,11.3-4.62h2.82l1.8-1.8h4L253.5,331h4.62l2.83-2.83,6.67,1,.77,1,3.85.78L274,333l-.77,1.8h-1l-1.79,1.79h-2.06l-1.8,2.83H255.3l-1.8,1h-4.62l-2.06-1-2.69,1.8-4.88,1-1.8,1.8,8.6,1,2.83,3.59,7.44,1,1.8-1h4.62l2.06,1h3.59l2.83,3.85q6.93.76,7.44.77a18,18,0,0,0,1.93-.38,16.3,16.3,0,0,1,1.92-.39q3.6-5.39,3.85-8.47l-5.64-6.68-4.88-1.8v-2.82l1-.77h1.8l4.88,2.57h3.6c1.36,1.88,3.25,4.7,5.64,8.47l-1.79,2v5.4l-2.83,2.82-1.8,4.88L281.49,362a106.09,106.09,0,0,0-14.9.77,55.94,55.94,0,0,0-15.66-4.62l-7.83-5.65-11.3-2.82-3.59,3.85-4.87.77-.77,2.05a22.12,22.12,0,0,1,.77,9.25h1v1.8l-1.79,2h-2l-.77,3.59h-1l-.26,4.11-2.56,1.67-.77,1.8.77,2.05-1.8,4.63-1.8,1.79a71.79,71.79,0,0,0,4.63,11.3l-1,2.82,2,3.6-1,4.88h-1v5.65l-.77.77v1.79L212.3,422v3.59l-2.83,3.85v1.8l-2.83,2.18v.77l-1,1q-.77,6.17-.77,6.42a10.66,10.66,0,0,0,.45,2.31,6.79,6.79,0,0,1,.32,2.57q-.39,3.21-.9,6.29a11.09,11.09,0,0,1-2.72,5.78l-1,3.85-3.1,2.31a76.92,76.92,0,0,0-4.37,12.58l-6.8,4.62,1,1.8-1.8,2.95v2.83h9.38q3,.51,19.4,6t19.13,7.06q3.09,2.19,9.25,6.42,3.35,1.55,9.38,4.88a64.6,64.6,0,0,0,8.48,5.65l1.79-7.45,2.83-2.05h5.65l2.83,2.82,3.85-2.82,4.63-9.25,2.82-1,2.83-2.83,5.65,1,2.83,2.82Zm-144-.51-3.34-2.31c-5.48-.68-7.79-1-6.93-1q-9.88,0-15.53,3.85a65.88,65.88,0,0,1-6.68,7.45v2.82l5.65,1a36.11,36.11,0,0,1,10.78-3.59q10.14-1.8,10.92-2.06Z" transform="translate(-110.87 -328.12)"/><path d="M378.29,471.14l-1.16,6.93h-.77v1.8l-1.8,2.05v.77l-2.82,2.06-2.82,4.75-2.83,1.79,1,1.54a18.2,18.2,0,0,1-3.08,4.63l-.52,2.56q-2.17,1.29-5.65,5.65a42,42,0,0,1-5.9,6.17,12.34,12.34,0,0,0-6.42,1,38,38,0,0,0-10.27-1,24.16,24.16,0,0,0-4.62,1.28l-4.88-1.28q-4.5-4-7.83-4.88a44.31,44.31,0,0,1-5.39-6.17,55.48,55.48,0,0,1-1-7.18,37.6,37.6,0,0,1-4.62-8q-5.15-4.25-5.14-14l2.57-6.67a27.61,27.61,0,0,1,7.19-4.88,20.06,20.06,0,0,0,2.06-3.6l4.63-2.82,4.63-6.42,4.76-1.8h2.83l3.86-3.85,4.63-1,1.8,1c.77,1,1.46,3.25,2.06,6.68h1.79l1-1,4.59-1.8,1.79-2h4.59l3.83,2,1.79,6.42,4.63,1.8h1a11.7,11.7,0,0,0,4.64,3.85Q375.07,461.76,378.29,471.14Zm-7.71-2.31L368.8,464v-.77l-2-1.8-.77-2.05-3.81-1.8-2.8,1.8a11.77,11.77,0,0,1-2.8,4.62c.17.6-.09,1.88-.77,3.85l-2.05,1v.77l-2.83,2-4.62-2.82-.77-1v-7.45l-2.05-4.62v-1l-1.8-1v-.77l-1.8-1-3.85,1-1.28,2.31-4.37,2.31h-.77c-.43,1.54-2.05,3.42-4.88,5.65V465l1,1v1.8l.51,1.28-2.31,5.4v3.59a11.76,11.76,0,0,1,1.8,2.83,11.75,11.75,0,0,1-.13,1.41,10,10,0,0,0-.13,1.41,11,11,0,0,0,.13,1.35,13.55,13.55,0,0,1,.13,1.35,16.29,16.29,0,0,1,1.79,5.9l3.84,2.83,1.79,3.59,4.61,3.85,6.66,1a62.44,62.44,0,0,1,8.7-4.62l-.25-2.06c1.53-1.11,3.75-2.73,6.66-4.88l.76-2.56a22.11,22.11,0,0,0,4.61-5.78l3.84-1.8A29,29,0,0,0,370.58,468.83Z" transform="translate(-110.87 -328.12)"/><path d="M465.59,457.79l-.52,6.16-3.21.77q-.9-.51-7.45-.51a14.07,14.07,0,0,1-5.91-1.8,55.07,55.07,0,0,0-4.11-5.91L440.53,455a17,17,0,0,0-5.39,6.68l-.52,3.59-2.81,1.8L429,471.65l.26,3.34-1,3.34-2.3,1,.25,3.6-2.82,2.95a12.07,12.07,0,0,1-2.56,6.42l-2.81,1-.51,3.34L418,499l-1,3.85-1.79,2.57-.77,3.59-3.34,4.11a61.34,61.34,0,0,0-6.81,1.8q-2.7-2.05-7.71-2.06A18.34,18.34,0,0,0,392,514q-3.42,1.15-4.69.9L386,512.35l.26-3.08a71.32,71.32,0,0,0,6.16-5.65q-.65-4.62,1-7.45h1l.52-2.31,1.28-.51L397,491h1l1.79-4.62a40.72,40.72,0,0,1,5.14-5c0-1.8,1.2-4.19,3.59-7.19v-3.08c2.32-5,3.21-8.9,2.7-11.81l-1.93-3.6-2.56-.77a33.08,33.08,0,0,1-4.88.26l-2.83,1.8-2.82-1.54-2.82.51-1-.77h-3.6v-2.05a9.35,9.35,0,0,1,5.66-3.6l2.57.26a13.89,13.89,0,0,1,7.71-4.11h3.6l1-.77,4,.51c1.28,0,3.43-1.2,6.42-3.59a37.5,37.5,0,0,1,6.43,3.08,18.53,18.53,0,0,1,2.83,5.39v1l2,4.36h.77a39.09,39.09,0,0,1,6.29-8.73q5-5.26,8.84-6.16l2.83,1,1.79,2.57a11.29,11.29,0,0,1,5.13,4.1v2.06l3.33,3.34,3.59,1v.77Z" transform="translate(-110.87 -328.12)"/><path d="M540.3,459.07l-1,1-.26,2.82,1,2.57-1,3.08.51,3.85q-3.21,6.93-6.41,9.25a14.81,14.81,0,0,0-1.93.38,16.25,16.25,0,0,1-1.93.39q-.25,0-5.64-.77l-1.8-1Q518.73,481,508,479t-14.45-3.53L490.36,477c-.25.43-1.09,2.7-2.5,6.81a66,66,0,0,0-2.12,6.67c0,.77,0,1.89.13,3.34s.13,2.57.13,3.34l3.85,8a22.44,22.44,0,0,0,4.24,1.28,2.35,2.35,0,0,0,.77-.13,2.53,2.53,0,0,1,.77-.12l7.7.77a25.38,25.38,0,0,0,6.68-3.08,53.42,53.42,0,0,1,6.16-3.6L518,500a15.66,15.66,0,0,0,4.62-5.39l5.39-1.54,1,2.83q-.64,3.21-13.35,15.92-4.24,2-11.94,2.69-8.48.65-11.94,1.93l-5.78-1-.77-.77-4.62-1q-6.56-4.36-12.33-14.89a53.2,53.2,0,0,0-1.28-7.45q.64-2.31,1.8-9.62l1-1-.51-.77,1.8-1.8,1-3.85q2.19-1.41,3.6-5.65V460.1l2-.77,1.8-6.68q9.38-10.9,19.9-14.12c.43,0,1.07,0,1.92.13s1.5.13,1.93.13c2.48-.69,3.68-1,3.6-1L510,439a26.17,26.17,0,0,0,4.36-1.28,24.5,24.5,0,0,1,5.65,1.41,23.6,23.6,0,0,0,5.65,1.41l2.57,2.83,2.56,1,1.29,1.79,3.59,1.54,2.06,2.31a24.14,24.14,0,0,1,1.28,4.5A24,24,0,0,0,540.3,459.07Zm-14.63,3.08-1-1a69.2,69.2,0,0,0-.25-6.93q-1.54-3.07-9.76-9.5-4.89,0-12.58,3.08l-1.29,2.06-2.31,1.54-1,2.31-.78.77v2.05l-1.54,1.29a18.24,18.24,0,0,0-1.28,5.13h-1l-.25,2.31.77,3.08q7.95,4.11,28.5,5.14,1-4,2.82-4.88Z" transform="translate(-110.87 -328.12)"/><path d="M680.37,491.55a64.51,64.51,0,0,1-4.24,6.93,17,17,0,0,1-6.16,5.14,14.89,14.89,0,0,1-5.65,5.65l-1.8,2.82-5.64,1-5.65-1-1.8-1.8v-1l-2.82-2.83v-1l-1-.77-1.8-3.86V497.2a9,9,0,0,1,.51-2.82l2.06-1.8a6.09,6.09,0,0,0-.13-1,5.21,5.21,0,0,1-.13-1,27.51,27.51,0,0,1,1.54-8.6h-1v-1.8a8.84,8.84,0,0,1,.51-2.37,8.9,8.9,0,0,0,.51-2.5,110.94,110.94,0,0,1,7.45-12.84v-4.62l.77-2.06H653q-3.33,2.58-11,7.45h-2.82l-3.85,2.05V466a15.92,15.92,0,0,0-5.65,2.83v1h-.77v1l-1,.77v1l-4.75,6.42q.25,2.31-2.05,5.65c.17.6-.18,2.52-1,5.77l-1.54,1.8v1l1.28,3.34-.51,2.31-1.8,1.79q-1.8,2.7-1.79,12.33l-3.86,1.8H609l-1.8-1-1-1.8-2.82-1-1.8-2.83v-.77l-1-1A17,17,0,0,0,601,500l1-2v-.77a12.45,12.45,0,0,0,3.33-4.88v-1.8L608,485.9q-.76-9.11,2.83-14.25v-2.82l1-.77a41.23,41.23,0,0,1-1-6.68q-6.16,1.55-9.25,4.62h-1.79l-3.86,4.88h-1v.77l-1.8,2.06-2.82.77-1.8,1.79v2.06h-1v1.79l-1.8,1-1,1.8-3.6,1-1.8,1.92v1l-1,1.8v1l-1.8,1.8q.51,5.77-1,9.24l-1-.77v.77l-1.8,2.83-2.95,1.8-1,2.05v.77h-1.8v1l-1,1a66.32,66.32,0,0,0-7.57,1,47.69,47.69,0,0,1-8.09.77,8.64,8.64,0,0,1-2.82-1,14.35,14.35,0,0,1-3.85-5.65l1-1.8h1.8l1-.77,3.59-1,1.54,2.06,2.31-.26,3.6-2.83,2.05-4.62v-3.85l1.8-1.8,1.8-5.77,1-.77q.51-7.2,2.83-10.27h1.8a20.16,20.16,0,0,0,1.15-8.48c-1-1.37-1.75-3.59-2.18-6.67.85-2.48,1.2-4,1-4.62h-1l-2.83,1.28L561.1,455l-3.34,2.31c-.6.09-1.81.32-3.65.71a22.86,22.86,0,0,1-4.05.58c-.43,0-1.07-.05-1.92-.13s-1.5-.13-1.93-.13l-1.54-4.62,2.56-2.57q2.06-.12,9.73-1.28a78.91,78.91,0,0,1,9.73-.77l3.07-1.54,2.69.77,2.82-2.31,4.1-1,3.33-2.31a33.4,33.4,0,0,1,5.63-.77l3.33,1.28.51,2.31-1,2.83-1,1a28.13,28.13,0,0,0,1.67,6,28.84,28.84,0,0,1,1.67,6l3.35.52q3.87-2.32,12.1-6.17l1.81-2.82a55.52,55.52,0,0,1,12.62-4.37l3.47-3.08,5.67,1,2.06,1.8v1.79h.77c-.18,1,.17,2.66,1,4.88l1.8.77,1.8-.77,2.05.77a15.78,15.78,0,0,0,4.63-2.82v-.77a28.41,28.41,0,0,0,6-2.89q4.36-2.5,5.26-3.79,2.82.26,13.87-1.54l2.05.77,2.83,2.83.77,1.79v7.45q-.9.64-3.6,7.45-5.52,1.8-6.67,8.47l-1,1v1.79l-.77.77v4.88l.77,1.8q-.14,2.19-4.11,13.48l1,3.59,3.08-1q3.21-2.44,9.5-7.45v-1h1C679.21,491.21,680.45,491.55,680.37,491.55Z" transform="translate(-110.87 -328.12)"/><path d="M782.82,492.83q.25,2.19-1.8,6.42l-1.8,1-1,1.8h-1l-1.8,2.05-3.85.77a13.47,13.47,0,0,1-1.67,2.57,14,14,0,0,0-1.67,2.57l-3.08,2.31-3.85,1-.77,1-3.85.77-1,1-4.75-1.8a21.85,21.85,0,0,1-11.3-2v-.77a7.65,7.65,0,0,0-1.79-2.06l-1.8-.77a16.58,16.58,0,0,1-2.31-8.21l1.28-3.08q2.05-1.41,6.93-10.53,3.21-5.91,6.42-11.94.26-3.08,4.37-14.12v-1.8l1-1v-1h1.16l2-4.11-.25-4.11-1-1a11.66,11.66,0,0,0-6.55,2.83v1a70.66,70.66,0,0,0-7.44,2.57l-2.06,2.06a18,18,0,0,0-5.39,1.79l-2-.25-1.8-1.54-.51-2.06.51-2.57c3-2.39,5.48-3.76,7.45-4.1L746,446q1.66-.78,4.88-2.32,7.57-3.33,18.87-3.33a17.49,17.49,0,0,1,1.93.38,16.3,16.3,0,0,0,1.92.39,15.87,15.87,0,0,1,3.6,5.65h1q1,1.67,1,6.93c0,.34-.26,1.8-.77,4.36a34.56,34.56,0,0,0-4.12,4.63l-2.84,1-.77,2.83h-1l-1.79,1.79a22.22,22.22,0,0,1-1,8.48h-.77a15,15,0,0,1-2.05,5.65L761.24,485q-3.07,9.9-2.81,10.66h-.77a62.45,62.45,0,0,1-1.29,6.68l.26,3.08q3.86-.26,10.59-4.18t8.15-7.38l3.08-1.8,2.31-.25Zm12.58-98.34L793.6,396c-.51,3.76-1.8,6.33-3.85,7.7v2.57l-2,2.31-1,3.59-3.34.77a12.08,12.08,0,0,1-2.57,6.42,20.43,20.43,0,0,0-5.13,4.37l-3.34,1L770,419.4c.17-1.88.26-4.71.26-8.47A14.47,14.47,0,0,0,772,399.12a26.23,26.23,0,0,1,4.63-7.71l4.62-1.79,1-1a9.59,9.59,0,0,1,4.37-1h4.11a11.28,11.28,0,0,1,4.62,3.85Z" transform="translate(-110.87 -328.12)"/><path d="M897.08,463.69q-1.55,6.42-3.21,12.71-2.45,7.58-6.29,11.3v2.05a49.55,49.55,0,0,0-4.88,6.42V498a25.23,25.23,0,0,0-2.82,4.88l-1.8.77-2.57,2.57-3.08,1.28-.77.77a29,29,0,0,1-15.28,2.83l-1.8,1q-2.57-1.16-7.44-3.85v-.77l-2.83-6.68,2.83-.77,1.8-2,3.85,2,.77,2.83,3.59.77q4.11,0,9.5-3.6l2.83-4.87v-.77l4.75-2.06,2-2.57.77-5.77h1v-5.65q-2.83-4.24-2.06-14.64h-.77v-3.85l-1-.77-.77-2.82-5.26.77q-6.42,8.21-13.61,16.69a14,14,0,0,0-4.62,2.56l-2.82,3.85v1l-3.85,2.57a49.74,49.74,0,0,1-3.59,6h-1l-1,1.8h-.77a12.87,12.87,0,0,1-.77,5.14c-.94,2.91-1.46,4.62-1.54,5.13q-1.29,1.55-4.36,4.62v1.8h-.77v2.05q-2.84,1.29-5,7.32c-.94,2.83-1.84,5.69-2.69,8.6a73.72,73.72,0,0,0-3.59,8.22l-1,1a75.37,75.37,0,0,0-3.21,11.42l-3.08,3.85a22.65,22.65,0,0,1-3.72,10.4c-2.32,3.77-5,6.21-8.1,7.32q-1.53,2.06-4.62,5.65l-3.6,1.8L788,579.49q-4.5,3.21-12.33,3.73-11.17.76-13,1.15l-1-1h-2.83q-13.87-5.9-15.93-15.91l-2.82-2.83v-1.8h-.77l-1-2.82,1-3.85a18.87,18.87,0,0,1,10.27-5.65v-.77h2.82v-1a49.14,49.14,0,0,1,11.17-2.44,85.77,85.77,0,0,0,11.3-2.18l8.47,1.8-2.05,1.28-4.62-.26-3.6,2.83-2.82.77-2.31,3.34q-5.14.76-14.77,4.36V560l-3.85,2.57-.77,3.08a92.86,92.86,0,0,1,6.67,7.19,71.4,71.4,0,0,1,9.37,3.85h3.86q-.27,0,14.11-3.6l1.54-3.85,3.6-3.59a50.9,50.9,0,0,1,8.73-14.38l-.52-4.11A43.28,43.28,0,0,1,800,536v-3.59l3.08-5.4v-2.82l1-.77a35.3,35.3,0,0,0,1.8-8.47l4.11-5.4.51-2.31,2.06-2.56v-1.8h-1a125,125,0,0,0,3.6-13.1h.77v-1l1.67-1.54v-3a13.46,13.46,0,0,0,3.59-5.13l-1-.77,1-1-1-1a13.61,13.61,0,0,0,2.57-4.62v-.77h-1v-2.82l1-2.06h.77l-1-3.59a86.67,86.67,0,0,1-8.85,1.54c-.17,0-2.83-.26-8-.77l-3.6,1-6.67-1v-.77h-2.82l-2.83-2.83,1-1.79,5.65-2.06q1.41,1,14.89,1l5.78-2.82h2.82l1.8-1.8h2.82l4.88-2.83.77-1,1.8-.77a108.24,108.24,0,0,1,3.82-12.33q1.14-1,16.9-1l.76,1,1,5.65-1.7,1.8a15.9,15.9,0,0,1-2.83,11.3h-1v1h-1a11.37,11.37,0,0,1-.32,3.34,17.89,17.89,0,0,0-.45,3.08c0,.34.26,2.06.77,5.14l-3.08,6.67,5.9-3.08A45,45,0,0,0,857,461.9a76.74,76.74,0,0,1,5.78-8.48,95,95,0,0,1,8.6-5.65q10.79-4.74,15.91-3.85l4.62,2.83v1l1,1v.77h1q1.28,1.55,1.28,11.3l.77,1v.77Z" transform="translate(-110.87 -328.12)"/><path d="M992.59,454.19l-.77,2.57-2.31,3.08-4.49-.51L982.71,457l-1.28-3.85.77-5.14-2.83-2.82q-1.92-1.29-9.5-1.29a14.08,14.08,0,0,0-3.34.52,25,25,0,0,1-4.11,2.82l-1.79,3.08a23.18,23.18,0,0,1,1,6.16l1.29,2.31a36.9,36.9,0,0,1,10,10q5.26,7.57,5.14,12.84l-1.54,3.72-2.31,1.8-.52,2.82q-3.21,2.31-3.85,7.7l-3.08,1.8-1,2.57a37,37,0,0,0-3.59,3.08l-3.6-.51q-3.84,1.28-8.47,5.9a16.71,16.71,0,0,0-8.22,3.85c-3.76.34-6.67.52-8.73.52q1.41,0-5.77-1.29a44.05,44.05,0,0,1-6.68-1.54,28.42,28.42,0,0,1-6.42-3.34,37,37,0,0,0-6.42-7.19,22,22,0,0,1-1-7.7,46,46,0,0,1,1.79-6.42l2.06-2.44,1-4.1h1l.51-3.86,3.86-2.82h2.82c.34,0,1.8.26,4.37.77q6,2.42,8.21,10.6l-.51,3.07.9,3.57-.9,3.58-3.34,4.6h-2.82l-2.06-3.8-.51-3.81-1.8-2.28H918.9l-2.56,1.54a23.66,23.66,0,0,0-1,9l4.36,4.11c5.4,1.54,9.5,2.31,12.33,2.31.77,0,1.88,0,3.34-.13s2.52-.13,3.21-.13A16.57,16.57,0,0,0,944,503a17.31,17.31,0,0,1,5.33-4.24c.17-.51.85-2,2-4.36l-.25-3.09,2.31-2.05-1.29-2.82.77-2.19-1.79-1.54-3.85-1q-.78-1.16-2.32-3.73t-2.31-3.72h-1l-.77-.77q-1.8-5.65-3.34-9.5a19.61,19.61,0,0,1,.77-5.39,48.06,48.06,0,0,0,4.62-6.94l.26-3.59,2.31-1.8.77-2.82h1l1.79-1.8a53.56,53.56,0,0,0,9.5-3.34,87.34,87.34,0,0,1,9.5-1.28,72,72,0,0,1,10.27,1q2.45,1.41,7.45,3.85a91.4,91.4,0,0,1,6,7.19Z" transform="translate(-110.87 -328.12)"/><path d="M1101.46,490.52q-1.41,1.94-5.71,4.24t-4.81,3.21v1q-1.68,1.28-4.63,3.59l-1.79,3.85-4.63,3.6-1,2.05q-4.5,3.09-14.51,2.31a44.92,44.92,0,0,1-10.53-4.36l-1-4.11a44.33,44.33,0,0,1,3.33-13.1q-7,1.94-10.39,6.17-5.65,6.93-6.3,7.44l.52.77c-.18.35-.43.82-.77,1.42s-.6,1.07-.77,1.41h-3.6a16.37,16.37,0,0,1-9.5,3.85q-11.68-.39-21.44-9.24-1.15-5-3.34-13.1a27.75,27.75,0,0,1,4.11-15.28v-.77q7.83-10.14,6.68-16.94l-2.06-1-.77,1h-2l-1.8,1.79-2.82,1-4.62-1,1.28-6.67,3.32-2.57a39.42,39.42,0,0,1,9.48-1l2.81-1.79H1016l1-1.8,3.58-1,1.79-4.62,1-1,3.84,1.8,4.61-1.8,5.63,1.8a71.27,71.27,0,0,1,.77,8.47l-.76,1.8-4.54,1a17.37,17.37,0,0,0-2,4.62h-.77q-1.28,7.44-3.85,9.5v.77a32,32,0,0,0-3.84,4.88l-.77,7.44-1,.78a13.24,13.24,0,0,0-1.8,8.6l.77,1q-.51,1.94,2.38,7.51t4.81,7.39h3.34q.76-.51,11.3-11l2.82-1,.52-1.8a5,5,0,0,0,3.08-2.05l1.79-.77v-1a46.44,46.44,0,0,1,2.83-4.75,19.79,19.79,0,0,0,5.78-3.47c2.91-2.39,4.57-3.72,5-4a8.13,8.13,0,0,1,1.8-3.85h1a148.69,148.69,0,0,1,6.29-16.17c.85-1.29,2-3.34,3.59-6.17a9.85,9.85,0,0,1,1-5.65l7.47-3.33,6.43,2.31a10.66,10.66,0,0,1,1,6.67l-1,1.8v2.83h-.78l-2.83,5.64h-1c-1.2.86-2.15,3.6-2.83,8.22h-.77a48.53,48.53,0,0,1-2.84,7.7v4.62l-2.83,6.55-1,1-2.83,7.45V498c0,.43,0,1.11.13,2s.13,1.63.13,2.06q4.88-3.09,6.41-5.14l5.65-.77.77-1v-1.8q2.57-2.44,7.45-7.45c2.4-.94,4-1.32,4.88-1.15l2.82,4Z" transform="translate(-110.87 -328.12)"/><path d="M1244.87,491.55a64.51,64.51,0,0,1-4.24,6.93,17.08,17.08,0,0,1-6.16,5.14,14.89,14.89,0,0,1-5.65,5.65l-1.8,2.82-5.65,1-5.65-1-1.79-1.8v-1l-2.83-2.83v-1l-1-.77-1.79-3.86V497.2a9,9,0,0,1,.51-2.82l2-1.8a5.91,5.91,0,0,0-.12-1,5.21,5.21,0,0,1-.13-1,27.23,27.23,0,0,1,1.54-8.6h-1v-1.8a8.84,8.84,0,0,1,.51-2.37,8.64,8.64,0,0,0,.52-2.5,112,112,0,0,1,7.44-12.84v-4.62l.77-2.06h-2.82q-3.35,2.58-11,7.45h-2.82l-3.86,2.05V466a16,16,0,0,0-5.65,2.83v1h-.77v1l-1,.77v1l-4.75,6.42q.26,2.31-2.06,5.65.26.9-1,5.77l-1.54,1.8v1l1.28,3.34-.51,2.31-1.8,1.79q-1.8,2.7-1.8,12.33l-3.85,1.8h-2.82l-1.8-1-1-1.8-2.82-1-1.8-2.83v-.77l-1-1a17,17,0,0,0,.52-6.42l1-2v-.77a12.38,12.38,0,0,0,3.34-4.88v-1.8l2.57-4.62q-.78-9.11,2.82-14.25v-2.82l1-.77a43.4,43.4,0,0,1-1-6.68q-6.16,1.55-9.24,4.62h-1.8l-3.85,4.88h-1v.77l-1.79,2.06-2.83.77-1.8,1.79v2.06h-1v1.79l-1.8,1-1,1.8-3.59,1-1.8,1.92v1l-1,1.8v1l-1.79,1.8q.51,5.77-1,9.24l-1-.77v.77l-1.8,2.83-3,1.8-1,2.05v.77h-1.79v1l-1,1a66,66,0,0,0-7.57,1,47.78,47.78,0,0,1-8.09.77,8.86,8.86,0,0,1-2.83-1,14.57,14.57,0,0,1-3.85-5.65l1-1.8h1.8l1-.77,3.6-1,1.54,2.06,2.31-.26,3.59-2.83,2.06-4.62v-3.85l1.8-1.8,1.79-5.77,1-.77q.51-7.2,2.82-10.27h1.8a20.17,20.17,0,0,0,1.16-8.48q-1.55-2.06-2.19-6.67,1.29-3.72,1-4.62h-1l-2.82,1.28-4.62-.26-3.34,2.31c-.6.09-1.82.32-3.66.71a22.78,22.78,0,0,1-4,.58c-.43,0-1.07-.05-1.93-.13s-1.5-.13-1.92-.13l-1.54-4.62,2.56-2.57q2-.12,9.73-1.28a78.77,78.77,0,0,1,9.73-.77l3.07-1.54,2.69.77,2.82-2.31,4.09-1,3.33-2.31a33.45,33.45,0,0,1,5.64-.77l3.33,1.28.51,2.31-1,2.83-1,1a28.27,28.27,0,0,0,1.68,6,28.84,28.84,0,0,1,1.67,6l3.35.52q3.86-2.32,12.1-6.17l1.8-2.82a55.68,55.68,0,0,1,12.62-4.37l3.48-3.08,5.66,1,2.06,1.8v1.79h.77q-.25,1.55,1,4.88l1.8.77,1.79-.77,2.06.77a15.88,15.88,0,0,0,4.62-2.82v-.77a28.41,28.41,0,0,0,6-2.89q4.36-2.5,5.27-3.79,2.82.26,13.86-1.54l2.06.77,2.82,2.83.77,1.79v7.45c-.6.43-1.79,2.91-3.59,7.45q-5.52,1.8-6.68,8.47l-1,1v1.79l-.78.77v4.88l.78,1.8q-.13,2.19-4.11,13.48l1,3.59,3.09-1q3.2-2.44,9.5-7.45v-1h1C1243.71,491.21,1245,491.55,1244.87,491.55Z" transform="translate(-110.87 -328.12)"/></svg>